<svg width="479" height="332" viewBox="0 0 479 332" fill="none" xmlns="http://www.w3.org/2000/svg">
    <rect x="438.965" y="-10.9707" width="9.94668" height="422.491" transform="rotate(33.4658 438.965 -10.9707)" fill="#DE7E86"/>
    <rect x="418.193" y="-10.1973" width="8.9885" height="422.491" transform="rotate(33.4658 418.193 -10.1973)" fill="#DE7E86"/>
    <rect x="397.849" y="-10.4248" width="8.45016" height="422.491" transform="rotate(33.4658 397.849 -10.4248)" fill="#DE7E86"/>
    <rect x="377.4" y="-10.0396" width="7.41815" height="422.491" transform="rotate(33.4658 377.4 -10.0396)" fill="#DE7E86"/>
    <rect x="361.449" y="-16.6226" width="6.7221" height="430.448" transform="rotate(33.4658 361.449 -16.6226)" fill="#DE7E86"/>
    <rect x="341.176" y="-16.748" width="5.98874" height="430.448" transform="rotate(33.4658 341.176 -16.748)" fill="#DE7E86"/>
    <rect x="321.156" y="-16.8872" width="4.96443" height="430.448" transform="rotate(33.4658 321.156 -16.8872)" fill="#DE7E86"/>
    <rect x="301.008" y="-17.124" width="4.14649" height="430.448" transform="rotate(33.4658 301.008 -17.124)" fill="#DE7E86"/>
    <rect x="280.595" y="-16.9727" width="3.24712" height="430.448" transform="rotate(33.4658 280.595 -16.9727)" fill="#DE7E86"/>
    <rect x="260.035" y="-16.5303" width="2.44512" height="430.448" transform="rotate(33.4658 260.035 -16.5303)" fill="#DE7E86"/>
    <rect x="239.628" y="-16.3574" width="1.61458" height="430.448" transform="rotate(33.4658 239.628 -16.3574)" fill="#DE7E86"/>
</svg>
