<svg width="537" height="912" viewBox="0 0 537 912" fill="none" xmlns="http://www.w3.org/2000/svg">
<rect x="527.965" y="7.0293" width="9.94668" height="1077.26" transform="rotate(33.4658 527.965 7.0293)" fill="#DE7E86"/>
<rect x="507.193" y="7.80273" width="8.9885" height="1013.6" transform="rotate(33.4658 507.193 7.80273)" fill="#DE7E86"/>
<rect x="486.849" y="7.5752" width="8.45016" height="901.462" transform="rotate(33.4658 486.849 7.5752)" fill="#DE7E86"/>
<rect x="466.4" y="7.96045" width="7.41815" height="884.772" transform="rotate(33.4658 466.4 7.96045)" fill="#DE7E86"/>
<rect x="450.449" y="1.37744" width="6.7221" height="881.033" transform="rotate(33.4658 450.449 1.37744)" fill="#DE7E86"/>
<rect x="430.176" y="1.25195" width="5.98874" height="808.033" transform="rotate(33.4658 430.176 1.25195)" fill="#DE7E86"/>
<rect x="410.156" y="1.11279" width="4.96443" height="805.734" transform="rotate(33.4658 410.156 1.11279)" fill="#DE7E86"/>
<rect x="390.008" y="0.875977" width="4.14649" height="802.24" transform="rotate(33.4658 390.008 0.875977)" fill="#DE7E86"/>
<rect x="369.595" y="1.02734" width="3.24712" height="809.054" transform="rotate(33.4658 369.595 1.02734)" fill="#DE7E86"/>
<rect x="349.035" y="1.46973" width="2.44512" height="741.227" transform="rotate(33.4658 349.035 1.46973)" fill="#DE7E86"/>
<rect x="328.628" y="1.64258" width="1.61458" height="731.036" transform="rotate(33.4658 328.628 1.64258)" fill="#DE7E86"/>
</svg>
